<svg width="407" height="83" viewBox="0 0 407 83" fill="none" xmlns="http://www.w3.org/2000/svg">
<path fill-rule="evenodd" clip-rule="evenodd" d="M30.3001 0H52.2483C68.9133 0 82.5483 13.635 82.5483 30.3001V52.2483C82.5483 68.9133 68.9133 82.5483 52.2483 82.5483H30.3001C13.635 82.5483 0 68.9133 0 52.2483V30.3001C0 13.635 13.635 0 30.3001 0Z" fill="white"/>
<path d="M148.584 29.6779C148.026 28.3345 147.215 27.1285 146.18 26.0899C145.142 25.0513 143.936 24.2444 142.592 23.6865C139.914 22.5749 136.837 22.5749 134.159 23.6865C132.816 24.2444 131.61 25.0556 130.571 26.0899C129.532 27.1285 128.726 28.3345 128.168 29.6779C127.614 31.0169 127.331 32.4375 127.331 33.8924V40.1584V41.2743V48.6562C127.331 49.639 126.94 50.5703 126.236 51.2741C125.893 51.6175 125.477 51.9008 125.026 52.0853C124.129 52.463 123.108 52.463 122.202 52.0853C121.751 51.8965 121.344 51.6261 120.996 51.2741C120.648 50.9265 120.374 50.5231 120.185 50.0682C119.996 49.6175 119.902 49.1411 119.902 48.6562L119.914 46.2399L119.91 41.2743V40.1584V33.8924C119.91 32.4332 119.627 31.0169 119.073 29.6779C118.515 28.3388 117.708 27.1285 116.67 26.0899C115.631 25.0556 114.425 24.2444 113.082 23.6865C111.743 23.1329 110.322 22.8496 108.863 22.8496C105.923 22.8496 103.155 23.9998 101.061 26.0899C100.026 27.1285 99.2194 28.3345 98.6572 29.6779C98.1036 31.0169 97.8203 32.4375 97.8203 33.8924V40.1584V41.2743V56.0337C97.8203 56.5187 97.9147 56.9865 98.0993 57.4286C98.2838 57.8749 98.5542 58.2741 98.9018 58.6217C99.2495 58.9693 99.6486 59.2354 100.091 59.42C100.975 59.7891 101.992 59.7934 102.88 59.42C103.322 59.2354 103.726 58.9693 104.073 58.6217C104.417 58.2741 104.687 57.8749 104.872 57.4286C105.061 56.9865 105.151 56.5144 105.151 56.0337V41.2743V40.1584V33.8924C105.151 33.4074 105.245 32.931 105.434 32.4804C105.812 31.5748 106.55 30.8409 107.455 30.4633C108.816 29.8924 110.434 30.2229 111.485 31.2744C111.837 31.6263 112.108 32.034 112.297 32.4804C112.485 32.931 112.58 33.4074 112.58 33.8924L112.571 36.3087V40.1584V41.2743V48.6562C112.571 50.1154 112.854 51.5317 113.408 52.8707C113.966 54.214 114.777 55.42 115.812 56.4586C116.85 57.4972 118.06 58.3041 119.399 58.862C122.078 59.9736 125.155 59.9736 127.833 58.862C129.176 58.3041 130.382 57.4972 131.421 56.4586C132.455 55.42 133.266 54.214 133.824 52.8707C134.378 51.5317 134.661 50.1154 134.661 48.6562V41.2743V40.1584V33.8924C134.661 33.4074 134.755 32.931 134.944 32.4804C135.322 31.5748 136.056 30.8409 136.961 30.4633C137.867 30.0856 138.888 30.0856 139.785 30.4633C140.24 30.6521 140.648 30.9268 140.996 31.2744C141.343 31.622 141.618 32.0255 141.807 32.4804C141.996 32.931 142.09 33.4074 142.09 33.8924V40.1584V41.2743V56.0337C142.09 57.008 142.472 57.9221 143.172 58.6217C143.515 58.9693 143.918 59.2354 144.361 59.42C144.803 59.6088 145.275 59.6989 145.755 59.6989C146.236 59.6989 146.704 59.6088 147.15 59.42C147.592 59.2354 147.996 58.9693 148.339 58.6217C148.687 58.2741 148.957 57.8749 149.142 57.4286C149.326 56.9865 149.421 56.5144 149.421 56.0337V41.2743V40.1584V33.8924C149.421 32.4375 149.137 31.0169 148.584 29.6779Z" fill="white"/>
<path d="M182.538 41.2088C182.538 49.5607 176.972 53.2988 171.457 53.2988C166.581 53.2988 160.886 50.1315 160.886 41.2088C160.886 32.3334 166.68 29.1875 171.646 29.1875C177.066 29.1875 182.538 32.9042 182.538 41.2088ZM171.71 22.6211C160.95 22.6211 153.436 30.2648 153.436 41.2088C153.436 52.2302 160.847 59.9254 171.457 59.9254C182.191 59.9254 189.984 52.0542 189.984 41.2088C189.984 30.2648 182.47 22.6211 171.71 22.6211Z" fill="white"/>
<path d="M201.341 41.2753L201.345 36.3054L201.332 33.8892C201.332 33.4085 201.431 32.9321 201.62 32.4815C201.809 32.0265 202.079 31.6188 202.427 31.2712C202.779 30.9235 203.186 30.6489 203.637 30.46C204.538 30.0824 205.56 30.0824 206.461 30.46C206.907 30.6489 207.324 30.9278 207.671 31.2712C208.375 31.9793 208.766 32.9064 208.766 33.8935V40.1595V41.2753V41.9534V45.5414V56.0348C208.766 56.5198 208.86 56.9876 209.04 57.4296C209.229 57.876 209.5 58.2751 209.843 58.6228C210.191 58.9704 210.59 59.2365 211.036 59.421C211.92 59.7901 212.933 59.7944 213.826 59.421C214.268 59.2365 214.667 58.9704 215.015 58.6228C215.362 58.2751 215.628 57.876 215.817 57.4296C216.002 56.9876 216.096 56.5155 216.096 56.0348V45.5414V41.9534V41.2753V40.1595V33.8935C216.096 32.4343 215.813 31.0137 215.255 29.6746C214.701 28.3356 213.89 27.1253 212.852 26.0867C211.813 25.0524 210.611 24.2412 209.264 23.6833C206.585 22.5717 203.513 22.5717 200.834 23.6833C199.491 24.2412 198.285 25.0524 197.247 26.0867C196.208 27.1253 195.401 28.3313 194.843 29.6746C194.285 31.0137 194.006 32.4343 194.006 33.8935L194.002 40.1595V41.2753V45.5414V56.0348C194.002 56.5198 194.096 56.9876 194.281 57.4296C194.465 57.876 194.736 58.2751 195.083 58.6228C195.431 58.9704 195.83 59.2365 196.272 59.421C197.156 59.7901 198.174 59.7944 199.062 59.421C199.508 59.2365 199.907 58.9704 200.255 58.6228C200.598 58.2751 200.869 57.876 201.053 57.4296C201.242 56.9876 201.332 56.5155 201.332 56.0348L201.341 41.2753Z" fill="white"/>
<path d="M249.212 41.2088C249.212 49.5607 243.649 53.2988 238.135 53.2988C233.255 53.2988 227.56 50.1315 227.56 41.2088C227.56 32.3334 233.358 29.1832 238.323 29.1832C243.744 29.1832 249.212 32.9042 249.212 41.2088ZM238.388 22.6211C227.628 22.6211 220.113 30.2648 220.113 41.2088C220.113 52.2302 227.521 59.9254 238.135 59.9254C248.868 59.9254 256.658 52.0542 256.658 41.2088C256.658 30.2648 249.147 22.6211 238.388 22.6211Z" fill="white"/>
<path d="M277.215 59.6989H263.172C262.687 59.6989 262.219 59.6045 261.777 59.42C261.331 59.2354 260.932 58.965 260.584 58.6217C260.237 58.2741 259.97 57.8706 259.786 57.4286C259.417 56.5445 259.413 55.5316 259.786 54.6389C259.97 54.1969 260.237 53.7934 260.584 53.4501C260.932 53.1025 261.331 52.8321 261.777 52.6475C262.219 52.463 262.691 52.3686 263.172 52.3686C270.125 52.3686 277.06 52.36 284.009 52.36L286.425 52.3686C286.906 52.3686 287.382 52.2741 287.833 52.0853C288.288 51.8965 288.695 51.6218 289.043 51.2741C289.391 50.9265 289.665 50.5188 289.854 50.0682C290.232 49.1626 290.232 48.1411 289.854 47.2442C289.665 46.7978 289.386 46.3772 289.043 46.0339C288.335 45.33 287.408 44.9395 286.421 44.9395H270.545C269.091 44.9395 267.67 44.6562 266.331 44.1026C264.988 43.5446 263.782 42.7378 262.743 41.6992C261.709 40.6605 260.897 39.4546 260.34 38.1112C259.228 35.4331 259.228 32.3559 260.34 29.6779C260.897 28.3345 261.709 27.1285 262.743 26.0942C263.782 25.0556 264.988 24.2444 266.331 23.6865C267.67 23.1329 269.091 22.8496 270.545 22.8496H293.803C294.283 22.8496 294.751 22.944 295.197 23.1286C295.644 23.3131 296.043 23.5835 296.391 23.9311C296.734 24.2745 297.004 24.6779 297.189 25.12C297.373 25.5663 297.468 26.0341 297.468 26.5148C297.468 26.9955 297.373 27.4676 297.189 27.9096C297.004 28.3517 296.734 28.7551 296.386 29.0985C295.691 29.798 294.773 30.18 293.803 30.18H270.545C270.06 30.18 269.584 30.2744 269.133 30.4633C268.683 30.6521 268.275 30.9268 267.927 31.2744C267.58 31.622 267.305 32.0298 267.116 32.4847C266.739 33.3817 266.739 34.4031 267.116 35.3087C267.494 36.2142 268.228 36.9481 269.133 37.3258C269.584 37.5147 270.06 37.6091 270.545 37.6091H286.421C287.88 37.6091 289.301 37.8923 290.64 38.446C291.979 39.0039 293.189 39.8151 294.228 40.8494C295.262 41.888 296.073 43.094 296.631 44.4373C297.743 47.1197 297.743 50.1926 296.631 52.8707C296.073 54.214 295.262 55.42 294.228 56.4586C293.189 57.493 291.983 58.3041 290.64 58.862C289.301 59.4157 287.88 59.6989 286.421 59.6989C283.352 59.6989 280.284 59.6989 277.215 59.6989Z" fill="white"/>
<path d="M308.271 58.862C306.932 58.3041 305.721 57.493 304.683 56.4586C303.648 55.42 302.842 54.214 302.279 52.8707C301.168 50.1926 301.172 47.1154 302.279 44.4373C302.764 43.2742 303.438 42.2142 304.284 41.2743C303.438 40.3344 302.764 39.2743 302.279 38.1112C301.172 35.4289 301.172 32.3559 302.279 29.6779C302.837 28.3388 303.648 27.1285 304.687 26.0899C305.721 25.0556 306.927 24.2444 308.275 23.6865C309.61 23.1329 311.03 22.8496 312.49 22.8496C317.781 22.8496 323.073 22.8496 328.365 22.8496C329.824 22.8496 331.24 23.1329 332.579 23.6865C333.923 24.2444 335.129 25.0556 336.167 26.0899C337.206 27.1285 338.013 28.3388 338.571 29.6779C339.682 32.3559 339.682 35.4289 338.571 38.1112C338.013 39.4546 337.206 40.6605 336.167 41.6992C335.129 42.7335 333.923 43.5446 332.579 44.1026C331.24 44.6562 329.824 44.9395 328.365 44.9395H326.575H312.49H312.468C311.987 44.9438 311.52 45.0382 311.078 45.2227C310.172 45.6004 309.438 46.3343 309.056 47.2399C308.683 48.1454 308.683 49.1669 309.056 50.0639C309.249 50.5188 309.52 50.9265 309.867 51.2741C310.215 51.6218 310.623 51.8965 311.078 52.0853C311.528 52.2741 312.005 52.3686 312.49 52.3686H335.742C336.717 52.3686 337.635 52.7505 338.33 53.4501C338.678 53.7934 338.944 54.1969 339.133 54.6389C339.318 55.081 339.408 55.5531 339.408 56.0337C339.408 56.5144 339.318 56.9822 339.133 57.4286C338.944 57.8706 338.678 58.2741 338.33 58.6174C337.983 58.965 337.584 59.2354 337.137 59.42C336.695 59.6045 336.223 59.6989 335.742 59.6989H312.49C311.03 59.6989 309.61 59.4157 308.271 58.862ZM312.49 37.6091H326.575H328.365C329.348 37.6091 330.279 37.2228 330.983 36.5147C331.326 36.1713 331.609 35.7507 331.794 35.3044C332.172 34.4074 332.172 33.386 331.794 32.4804C331.605 32.0298 331.335 31.622 330.983 31.2744C330.635 30.9268 330.232 30.6521 329.777 30.4633C329.326 30.2744 328.85 30.18 328.365 30.18L325.949 30.1886H320.425H314.901L312.485 30.18C312.005 30.18 311.528 30.2744 311.078 30.4633C310.623 30.6521 310.215 30.9268 309.872 31.2744C309.52 31.622 309.245 32.0298 309.06 32.4804C308.678 33.386 308.683 34.4074 309.056 35.3044C309.245 35.7507 309.524 36.1713 309.872 36.5147C310.575 37.2228 311.507 37.6091 312.49 37.6091Z" fill="white"/>
<path d="M407 42.0082V40.7979V33.9912C407 27.8925 402.039 22.9441 395.958 22.9441C392.653 22.9441 372.803 22.6008 371.31 23.2231C369.949 23.7896 369.039 25.1286 369.039 26.6093V40.7979V41.9524V42.0082C369.035 44.991 368.752 56.0724 369.318 57.4329C369.893 58.8149 371.233 59.699 372.748 59.699H395.958C402.043 59.699 407 54.7506 407 48.6562V42.0082ZM376.37 42.0082V40.7979V30.2745H395.958C398.005 30.2745 399.674 31.9697 399.674 33.9912L399.67 40.7979V42.0082V48.8193C399.58 50.7721 397.945 52.3686 395.958 52.3686H376.37V42.0082Z" fill="white"/>
<path d="M350.73 41.2753V36.3054L350.721 33.8892C350.721 33.4085 350.815 32.9321 351.004 32.4815C351.193 32.0265 351.468 31.6188 351.815 31.2712C352.163 30.9235 352.571 30.6489 353.021 30.46C353.927 30.0824 354.948 30.0824 355.845 30.46C356.292 30.6489 356.712 30.9278 357.056 31.2712C357.76 31.9793 358.15 32.9064 358.15 33.8935V40.1595V41.2753V41.9534V45.5414V56.0348C358.15 56.5198 358.245 56.9876 358.429 57.4296C358.614 57.876 358.884 58.2751 359.227 58.6228C359.575 58.9704 359.978 59.2365 360.42 59.421C361.305 59.7901 362.317 59.7944 363.21 59.421C363.652 59.2365 364.056 58.9704 364.399 58.6228C364.747 58.2751 365.017 57.876 365.202 57.4296C365.386 56.9876 365.48 56.5155 365.48 56.0348V45.5414V41.9534V41.2753V40.1595V33.8935C365.48 32.4343 365.197 31.0137 364.644 29.6746C364.086 28.3356 363.275 27.1253 362.24 26.0867C361.202 25.0524 359.996 24.2412 358.652 23.6833C355.97 22.5717 352.897 22.5717 350.219 23.6833C348.876 24.2412 347.67 25.0524 346.631 26.0867C345.597 27.1253 344.785 28.3313 344.228 29.6746C343.674 31.0137 343.391 32.4343 343.391 33.8935V40.1595V41.2753V45.5414V56.0348C343.391 56.5198 343.485 56.9876 343.67 57.4296C343.854 57.876 344.125 58.2751 344.468 58.6228C344.816 58.9704 345.219 59.2365 345.661 59.421C346.545 59.7901 347.558 59.7944 348.451 59.421C348.893 59.2365 349.292 58.9704 349.639 58.6228C349.987 58.2751 350.253 57.876 350.442 57.4296C350.627 56.9876 350.721 56.5155 350.721 56.0348L350.73 41.2753Z" fill="white"/>
<path d="M66.2356 29.6779C65.6777 28.3345 64.8708 27.1285 63.8322 26.0899C62.7936 25.0513 61.5876 24.2444 60.2442 23.6865C57.5705 22.5749 54.4932 22.5749 51.8152 23.6865C50.4718 24.2444 49.2658 25.0556 48.2272 26.0899C47.1886 27.1285 46.3818 28.3345 45.8238 29.6779C45.2659 31.0169 44.9869 32.4375 44.9869 33.8924V40.1584V41.2743V48.6562C44.9869 49.639 44.5964 50.5703 43.8925 51.2741C43.5492 51.6175 43.1286 51.9008 42.6822 52.0853C41.781 52.463 40.7638 52.463 39.8582 52.0853C39.4076 51.8965 38.9999 51.6261 38.648 51.2741C38.3003 50.9265 38.0299 50.5231 37.8411 50.0682C37.6523 49.6175 37.5578 49.1411 37.5578 48.6562L37.5664 46.2399V41.2743V40.1584V33.8924C37.5664 32.4332 37.2832 31.0169 36.7252 29.6779C36.1716 28.3388 35.3604 27.1285 34.3218 26.0899C33.2875 25.0556 32.0772 24.2444 30.7382 23.6865H30.7339C29.3991 23.1329 27.9786 22.8496 26.5193 22.8496C23.5795 22.8496 20.807 23.9998 18.7169 26.0899C17.6783 27.1285 16.8714 28.3345 16.3135 29.6779C15.7555 31.0169 15.4766 32.4375 15.4766 33.8924V40.1584V41.2743V56.0337C15.4766 56.5187 15.571 56.9865 15.7555 57.4286C15.9401 57.8749 16.2105 58.2741 16.5538 58.6217C16.9014 58.9693 17.3006 59.2354 17.7469 59.42C18.631 59.7891 19.6439 59.7934 20.5366 59.42C20.9786 59.2354 21.3778 58.9693 21.7254 58.6217C22.073 58.2741 22.3391 57.8749 22.528 57.4286C22.7125 56.9865 22.8069 56.5144 22.8069 56.0337V41.2743V40.1584V33.8924C22.8069 33.4074 22.9014 32.931 23.0902 32.4804C23.4679 31.5748 24.2018 30.8409 25.1073 30.4633C26.4721 29.8924 28.0858 30.2229 29.1373 31.2744C29.4893 31.6263 29.7639 32.034 29.9528 32.4804C30.1416 32.931 30.2317 33.4074 30.2317 33.8924L30.2232 36.3087V40.1584V41.2743L30.2275 48.6562C30.2275 50.1154 30.5064 51.5317 31.0644 52.8707C31.6223 54.214 32.4291 55.42 33.4678 56.4586C34.5064 57.4972 35.7124 58.3041 37.0557 58.862C39.7338 59.9736 42.8067 59.9736 45.4848 58.862C46.8281 58.3041 48.0384 57.4972 49.0727 56.4586C50.1113 55.42 50.9225 54.214 51.4761 52.8707C52.0341 51.5317 52.3173 50.1154 52.3173 48.6562V41.2743V40.1584V33.8924C52.3173 33.4074 52.4117 32.931 52.5963 32.4804C52.9782 31.5748 53.7121 30.8409 54.6177 30.4633C55.519 30.0856 56.5404 30.0856 57.4417 30.4633C57.8966 30.6521 58.3044 30.9268 58.652 31.2744C58.9996 31.622 59.27 32.0255 59.4589 32.4804C59.6477 32.931 59.7464 33.4074 59.7464 33.8924V40.1584V41.2743V56.0337C59.7464 57.008 60.1284 57.9221 60.8236 58.6217C61.1713 58.9693 61.5704 59.2354 62.0125 59.42C62.4588 59.6088 62.9266 59.6989 63.4073 59.6989C63.888 59.6989 64.3601 59.6088 64.8064 59.42C65.2485 59.2354 65.6476 58.9693 65.9953 58.6217C66.3429 58.2741 66.609 57.8749 66.7978 57.4286C66.9824 56.9865 67.0768 56.5144 67.0768 56.0337V41.2743V40.1584V33.8924C67.0768 32.4375 66.7935 31.0169 66.2356 29.6779Z" fill="#151515"/>
</svg>
