<svg width="18" height="21" viewBox="0 0 18 21" fill="none" xmlns="http://www.w3.org/2000/svg">
<path d="M16.5767 11.907V8.17141C16.5767 4.64944 16.5767 2.88847 15.4826 1.79433C14.3884 0.700195 12.6275 0.700195 9.10546 0.700195H8.17165C4.64975 0.700195 2.88879 0.700195 1.79465 1.79432C0.700514 2.88844 0.700505 4.6494 0.700477 8.17134L0.70044 11.9069C0.700412 15.4289 0.700393 17.1899 1.79453 18.2841C2.88866 19.3782 4.64966 19.3782 8.17165 19.3782H9.10546C12.6275 19.3782 14.3884 19.3782 15.4826 18.2841C16.5767 17.19 16.5767 15.4289 16.5767 11.907Z" stroke="#141B34" stroke-width="1.40085" stroke-linecap="round" stroke-linejoin="round"/>
<path d="M4.90305 5.37012H12.3743M4.90305 10.0396H12.3743M4.90305 14.7091H8.63865" stroke="#141B34" stroke-width="1.40085" stroke-linecap="round" stroke-linejoin="round"/>
</svg>
