<svg width="24" height="24" viewBox="0 0 24 24" fill="none" xmlns="http://www.w3.org/2000/svg">
<rect width="24" height="24" rx="12" fill="black"/>
<path d="M13.7943 12.7358H11.0884V14.0888H13.7943V12.7358Z" fill="white"/>
<path fill-rule="evenodd" clip-rule="evenodd" d="M9.73551 12.7357C10.4827 12.7357 11.0885 12.13 11.0885 11.3827C11.0885 10.6355 10.4827 10.0298 9.73551 10.0298C8.9883 10.0298 8.38257 10.6355 8.38257 11.3827C8.38257 12.13 8.9883 12.7357 9.73551 12.7357ZM9.73551 11.721C9.92231 11.721 10.0737 11.5695 10.0737 11.3827C10.0737 11.196 9.92231 11.0445 9.73551 11.0445C9.5487 11.0445 9.39727 11.196 9.39727 11.3827C9.39727 11.5695 9.5487 11.721 9.73551 11.721Z" fill="white"/>
<path fill-rule="evenodd" clip-rule="evenodd" d="M16.5001 11.3827C16.5001 12.13 15.8943 12.7357 15.1471 12.7357C14.3999 12.7357 13.7942 12.13 13.7942 11.3827C13.7942 10.6355 14.3999 10.0298 15.1471 10.0298C15.8943 10.0298 16.5001 10.6355 16.5001 11.3827ZM15.4854 11.3827C15.4854 11.5695 15.3339 11.721 15.1471 11.721C14.9603 11.721 14.8089 11.5695 14.8089 11.3827C14.8089 11.196 14.9603 11.0445 15.1471 11.0445C15.3339 11.0445 15.4854 11.196 15.4854 11.3827Z" fill="white"/>
<path fill-rule="evenodd" clip-rule="evenodd" d="M6.09823 13.8625C6.76233 15.1991 8.14154 16.1176 9.73529 16.1176H15.1471C16.7977 16.1176 18.2181 15.1324 18.8524 13.7179C19.3729 13.3504 19.7127 12.7443 19.7127 12.0588C19.7127 11.3734 19.3729 10.7672 18.8524 10.3998C18.2181 8.98529 16.7977 8 15.1471 8H9.73529C8.14154 8 6.76233 8.91858 6.09823 10.2552C5.44587 10.5927 5 11.2736 5 12.0588C5 12.844 5.44587 13.525 6.09823 13.8625ZM9.73529 9.35294H15.1471C16.0829 9.35294 16.9078 9.82805 17.3937 10.5502C17.5805 11.0166 17.6833 11.5257 17.6833 12.0588C17.6833 12.5919 17.5805 13.1011 17.3937 13.5674C16.9078 14.2896 16.0829 14.7647 15.1471 14.7647H9.73529C8.24088 14.7647 7.02941 13.5532 7.02941 12.0588C7.02941 10.5644 8.24088 9.35294 9.73529 9.35294Z" fill="white"/>
</svg>
