<svg width="27" height="24" viewBox="0 0 27 24" fill="none" xmlns="http://www.w3.org/2000/svg">
<path fill-rule="evenodd" clip-rule="evenodd" d="M10.3445 23.9402H16.2556C20.4067 23.9402 22.4822 23.9402 23.9732 22.9621C24.6185 22.5386 25.1727 21.9945 25.604 21.3609C26.6002 19.8971 26.6002 17.8592 26.6002 13.7837C26.6002 9.70827 26.6002 7.67044 25.604 6.20662C25.1727 5.57293 24.6185 5.02882 23.9732 4.6054C23.015 3.9769 21.8157 3.75226 19.9794 3.67197C19.1031 3.67197 18.3487 3.02003 18.1768 2.17637C17.919 0.91091 16.7872 0 15.4729 0H11.1273C9.81287 0 8.68117 0.91091 8.42339 2.17637C8.25154 3.02003 7.49706 3.67197 6.62079 3.67197C4.78448 3.75226 3.58511 3.9769 2.62709 4.6054C1.98165 5.02882 1.42747 5.57293 0.996204 6.20662C1.58549e-07 7.67044 0 9.70827 0 13.7837C0 17.8592 1.58549e-07 19.8971 0.996204 21.3609C1.42747 21.9945 1.98165 22.5386 2.62709 22.9621C4.11803 23.9402 6.19352 23.9402 10.3445 23.9402ZM13.3001 8.34279C10.2395 8.34279 7.75838 10.7788 7.75838 13.7837C7.75838 16.7887 10.2395 19.2246 13.3001 19.2246C16.3607 19.2246 18.8418 16.7887 18.8418 13.7837C18.8418 10.7788 16.3607 8.34279 13.3001 8.34279ZM13.3001 10.5192C11.4637 10.5192 9.97507 11.9807 9.97507 13.7837C9.97507 15.5866 11.4637 17.0483 13.3001 17.0483C15.1364 17.0483 16.6251 15.5866 16.6251 13.7837C16.6251 11.9807 15.1364 10.5192 13.3001 10.5192ZM19.5807 9.43097C19.5807 8.82999 20.0769 8.34279 20.6891 8.34279H22.1669C22.7789 8.34279 23.2752 8.82999 23.2752 9.43097C23.2752 10.032 22.7789 10.5192 22.1669 10.5192H20.6891C20.0769 10.5192 19.5807 10.032 19.5807 9.43097Z" fill="#1C274C"/>
</svg>
