<svg width="26" height="27" viewBox="0 0 26 27" fill="none" xmlns="http://www.w3.org/2000/svg">
<path d="M17.6886 0.279669C17.1433 -0.265635 16.199 0.106767 16.199 0.864873V5.50661C16.199 7.44842 17.8482 9.05773 19.8565 9.05773C21.12 9.07103 22.8756 9.07103 24.3785 9.07103C25.1366 9.07103 25.5356 8.17993 25.0036 7.64792C23.0884 5.71941 19.657 2.24808 17.6886 0.279669Z" fill="#1C274C"/>
<path d="M23.9402 10.8928H20.0964C16.9443 10.8928 14.3774 8.32586 14.3774 5.17374V1.33001C14.3774 0.598504 13.7789 0 13.0474 0H7.40815C3.31172 0 0 2.66002 0 7.40815V19.192C0 23.9402 3.31172 26.6002 7.40815 26.6002H17.862C21.9585 26.6002 25.2702 23.9402 25.2702 19.192V12.2228C25.2702 11.4913 24.6717 10.8928 23.9402 10.8928ZM11.9701 20.9476H6.65005C6.10474 20.9476 5.65254 20.4954 5.65254 19.9501C5.65254 19.4048 6.10474 18.9526 6.65005 18.9526H11.9701C12.5154 18.9526 12.9676 19.4048 12.9676 19.9501C12.9676 20.4954 12.5154 20.9476 11.9701 20.9476ZM14.6301 15.6276H6.65005C6.10474 15.6276 5.65254 15.1754 5.65254 14.6301C5.65254 14.0848 6.10474 13.6326 6.65005 13.6326H14.6301C15.1754 13.6326 15.6276 14.0848 15.6276 14.6301C15.6276 15.1754 15.1754 15.6276 14.6301 15.6276Z" fill="#1C274C"/>
</svg>
