<svg width="27" height="27" viewBox="0 0 27 27" fill="none" xmlns="http://www.w3.org/2000/svg">
<path fill-rule="evenodd" clip-rule="evenodd" d="M0 3.99003C0 1.7864 1.7864 0 3.99003 0H22.6102C24.8139 0 26.6002 1.7864 26.6002 3.99003V22.6102C26.6002 24.8139 24.8139 26.6002 22.6102 26.6002H3.99003C1.7864 26.6002 0 24.8139 0 22.6102V3.99003ZM7.31505 10.6401C9.15141 10.6401 10.6401 9.15141 10.6401 7.31505C10.6401 5.47869 9.15141 3.99003 7.31505 3.99003C5.47869 3.99003 3.99003 5.47869 3.99003 7.31505C3.99003 9.15141 5.47869 10.6401 7.31505 10.6401ZM11.1104 15.1004L13.9651 17.9551L21.4749 10.4453C21.8938 10.0264 22.6102 10.3231 22.6102 10.9155V22.6102H3.99003V21.2801L10.1698 15.1004C10.4295 14.8406 10.8506 14.8406 11.1104 15.1004Z" fill="#1C274C"/>
</svg>
