<svg width="29" height="30" viewBox="0 0 29 30" fill="none" xmlns="http://www.w3.org/2000/svg">
<path fill-rule="evenodd" clip-rule="evenodd" d="M16.2917 0C19.4853 0 22.5482 1.26867 24.8064 3.52692C27.0647 5.78517 28.3333 8.84802 28.3333 12.0417C28.3333 15.2353 27.0647 18.2982 24.8064 20.5564C22.5482 22.8147 19.4853 24.0833 16.2917 24.0833H15.5833V25.4858C15.5833 25.6739 15.5463 25.86 15.4743 26.0337C15.4023 26.2074 15.2968 26.3652 15.1638 26.4981C15.0307 26.631 14.8728 26.7363 14.6991 26.8082C14.5253 26.88 14.3391 26.9169 14.1511 26.9167C10.6661 26.9138 7.13575 25.7507 4.45683 23.3693C1.75383 20.9638 0.00283333 17.3896 0 12.7627V12.0417C0 8.84802 1.26867 5.78517 3.52692 3.52692C5.78517 1.26867 8.84802 0 12.0417 0H16.2917ZM9.20833 9.91667C8.64475 9.91667 8.10425 10.1405 7.70573 10.5391C7.30722 10.9376 7.08333 11.4781 7.08333 12.0417C7.08333 12.6053 7.30722 13.1458 7.70573 13.5443C8.10425 13.9428 8.64475 14.1667 9.20833 14.1667C9.77192 14.1667 10.3124 13.9428 10.7109 13.5443C11.1095 13.1458 11.3333 12.6053 11.3333 12.0417C11.3333 11.4781 11.1095 10.9376 10.7109 10.5391C10.3124 10.1405 9.77192 9.91667 9.20833 9.91667ZM19.125 9.91667C18.5614 9.91667 18.0209 10.1405 17.6224 10.5391C17.2239 10.9376 17 11.4781 17 12.0417C17 12.6053 17.2239 13.1458 17.6224 13.5443C18.0209 13.9428 18.5614 14.1667 19.125 14.1667C19.6886 14.1667 20.2291 13.9428 20.6276 13.5443C21.0261 13.1458 21.25 12.6053 21.25 12.0417C21.25 11.4781 21.0261 10.9376 20.6276 10.5391C20.2291 10.1405 19.6886 9.91667 19.125 9.91667Z" fill="black"/>
</svg>
