<svg width="18" height="20" viewBox="0 0 18 20" fill="none" xmlns="http://www.w3.org/2000/svg">
<path d="M1.59375 0C0.71875 0 0 0.71875 0 1.59375V18.4063C0 19.2813 0.71875 20 1.59375 20H15.9063C16.7813 20 17.5 19.2813 17.5 18.4063V6.34375L11.5937 0H1.59375Z" fill="#CF0B0F"/>
<path d="M17.5005 6.375V6.6875H13.5005C13.5005 6.6875 11.5317 6.28125 11.5942 4.59375C11.5942 4.59375 11.6567 6.375 13.4692 6.375H17.5005Z" fill="#6B0D12"/>
<path opacity="0.5" d="M11.5938 0V4.5625C11.5938 5.09375 11.9375 6.375 13.5 6.375H17.5L11.5938 0Z" fill="white"/>
<path d="M4.65625 15.3125H3.625V16.5937C3.625 16.7187 3.53125 16.8125 3.375 16.8125C3.25 16.8125 3.15625 16.7187 3.15625 16.5937V13.4063C3.15625 13.2188 3.3125 13.0625 3.5 13.0625H4.65625C5.40625 13.0625 5.84375 13.5938 5.84375 14.1875C5.84375 14.8125 5.40625 15.3125 4.65625 15.3125ZM4.625 13.4687H3.625V14.9063H4.625C5.0625 14.9063 5.375 14.625 5.375 14.1875C5.375 13.75 5.0625 13.4687 4.625 13.4687ZM7.875 16.8125H6.9375C6.75 16.8125 6.59375 16.6563 6.59375 16.4688V13.4063C6.59375 13.2188 6.75 13.0625 6.9375 13.0625H7.875C9.03125 13.0625 9.8125 13.875 9.8125 14.9375C9.8125 16 9.0625 16.8125 7.875 16.8125ZM7.875 13.4687H7.0625V16.375H7.875C8.78125 16.375 9.3125 15.7188 9.3125 14.9063C9.34375 14.125 8.8125 13.4687 7.875 13.4687ZM12.9687 13.4687H11.1563V14.6875H12.9375C13.0625 14.6875 13.125 14.7813 13.125 14.9063C13.125 15.0313 13.0313 15.0938 12.9375 15.0938H11.1563V16.5937C11.1563 16.7187 11.0625 16.8125 10.9063 16.8125C10.7813 16.8125 10.6875 16.7187 10.6875 16.5937V13.4063C10.6875 13.2188 10.8437 13.0625 11.0312 13.0625H12.9687C13.0937 13.0625 13.1562 13.1563 13.1562 13.2813C13.1875 13.375 13.0937 13.4687 12.9687 13.4687Z" fill="white"/>
</svg>
