<svg width="18" height="19" viewBox="0 0 18 19" fill="none" xmlns="http://www.w3.org/2000/svg">
<path fill-rule="evenodd" clip-rule="evenodd" d="M15.2023 0.125956C15.5751 -0.0098889 15.9789 -0.0364945 16.3663 0.0492661C16.7537 0.135027 17.1086 0.32959 17.3892 0.610088C17.6698 0.890586 17.8646 1.24536 17.9505 1.63272C18.0365 2.02008 18.0101 2.42393 17.8744 2.79679L13.2763 16.5781C13.1645 16.9168 12.9676 17.2211 12.7045 17.4619C12.4414 17.7027 12.1209 17.8719 11.7737 17.9534C11.4273 18.0377 11.0649 18.0305 10.7221 17.9326C10.3793 17.8347 10.0678 17.6495 9.81813 17.3951L7.35056 14.9391L4.75949 16.2796C4.66016 16.3311 4.54912 16.3559 4.43733 16.3513C4.32554 16.3468 4.21686 16.3132 4.12203 16.2538C4.0272 16.1945 3.94949 16.1114 3.89658 16.0128C3.84367 15.9142 3.81738 15.8035 3.82032 15.6917L3.9271 11.5954L12.9907 5.0122C13.0762 4.95011 13.1486 4.87179 13.2038 4.78172C13.2591 4.69164 13.296 4.59157 13.3125 4.48721C13.3291 4.38286 13.3249 4.27627 13.3003 4.17353C13.2756 4.07079 13.231 3.97391 13.1689 3.88842C13.1068 3.80293 13.0285 3.73051 12.9384 3.67529C12.8483 3.62006 12.7483 3.58313 12.6439 3.56658C12.5396 3.55003 12.433 3.5542 12.3302 3.57885C12.2275 3.6035 12.1306 3.64814 12.0451 3.71023L2.8284 10.4053L0.602704 8.17964C0.362835 7.93971 0.18599 7.6442 0.0879029 7.31941C-0.0101839 6.99463 -0.0264711 6.65063 0.0404902 6.31803C0.107704 5.95456 0.270375 5.61549 0.511825 5.33561C0.753274 5.05573 1.06482 4.84509 1.41451 4.72531H1.41965L15.2023 0.125956Z" fill="white"/>
</svg>
