<svg width="30" height="21" viewBox="0 0 30 21" fill="none" xmlns="http://www.w3.org/2000/svg">
<path d="M28.8 10.3526H11.9213M0.800049 4.04774H4.74061M2.37627 10.3526H4.74061M3.16439 16.6575H4.74061M11.773 11.1243L10.3678 15.7884C9.8358 17.5541 9.56979 18.4369 9.79611 18.964C9.99258 19.4217 10.3938 19.7597 10.8783 19.8754C11.4363 20.0087 12.2609 19.5964 13.9103 18.7717L26.2369 12.6083C27.6889 11.8823 28.4151 11.5193 28.648 11.028C28.8507 10.6005 28.8507 10.1047 28.648 9.67719C28.4151 9.18588 27.6889 8.82287 26.2369 8.09686L13.8934 1.92518C12.2487 1.1028 11.4263 0.691611 10.8688 0.824345C10.3848 0.939614 9.98357 1.27666 9.78655 1.73354C9.55962 2.25977 9.82279 3.14075 10.3491 4.90274L11.7747 9.67498C11.8552 9.94451 11.8954 10.0793 11.9113 10.2166C11.9255 10.3384 11.9254 10.4614 11.9109 10.5832C11.8946 10.7205 11.8541 10.8551 11.773 11.1243Z" stroke="black" stroke-width="1.6" stroke-linecap="round" stroke-linejoin="round"/>
</svg>
