<svg width="17" height="19" viewBox="0 0 17 19" fill="none" xmlns="http://www.w3.org/2000/svg">
<path d="M9.00403 18.069L8.99467 18.0707L8.93432 18.1004L8.91733 18.1038L8.90543 18.1004L8.84508 18.0707C8.83601 18.0678 8.82921 18.0693 8.82467 18.0749L8.82128 18.0834L8.80683 18.4472L8.81108 18.4642L8.81958 18.4753L8.90797 18.5382L8.92072 18.5416L8.93092 18.5382L9.01933 18.4753L9.02953 18.4617L9.03292 18.4472L9.01847 18.0843C9.01621 18.0752 9.01139 18.0701 9.00403 18.069ZM9.22927 17.9729L9.21823 17.9746L9.06097 18.0537L9.05247 18.0622L9.04993 18.0715L9.06522 18.437L9.06948 18.4472L9.07628 18.4532L9.24712 18.5322C9.25789 18.5351 9.26611 18.5328 9.27178 18.5254L9.27517 18.5135L9.24628 17.9916C9.24344 17.9814 9.23777 17.9752 9.22927 17.9729ZM8.62152 17.9746C8.61778 17.9724 8.6133 17.9716 8.60903 17.9726C8.60475 17.9735 8.60101 17.9761 8.59858 17.9797L8.59347 17.9916L8.56458 18.5135C8.56514 18.5237 8.56996 18.5305 8.57903 18.5339L8.59177 18.5322L8.76263 18.4532L8.77113 18.4464L8.77452 18.437L8.78898 18.0715L8.78642 18.0613L8.77792 18.0528L8.62152 17.9746Z" fill="#181A1F"/>
<path d="M8.5 0C13.1946 0 17 3.80545 17 8.5C17 13.1946 13.1946 17 8.5 17C3.80545 17 0 13.1946 0 8.5C0 3.80545 3.80545 0 8.5 0ZM8.5 3.4C8.27457 3.4 8.05837 3.48955 7.89896 3.64896C7.73955 3.80837 7.65 4.02457 7.65 4.25V8.5C7.65005 8.72542 7.73963 8.94158 7.89905 9.10095L10.4491 11.651C10.6094 11.8058 10.8241 11.8915 11.0469 11.8895C11.2698 11.8876 11.483 11.7982 11.6406 11.6406C11.7982 11.483 11.8876 11.2698 11.8895 11.0469C11.8915 10.8241 11.8058 10.6094 11.651 10.4491L9.35 8.1481V4.25C9.35 4.02457 9.26045 3.80837 9.10104 3.64896C8.94164 3.48955 8.72543 3.4 8.5 3.4Z" fill="#181A1F"/>
</svg>
